<mxfile host="app.diagrams.net" modified="2023-06-16T08:37:26.256Z" agent="Mozilla/5.0 (Windows NT 10.0; Win64; x64) AppleWebKit/537.36 (KHTML, like Gecko) Chrome/114.0.0.0 Safari/537.36 Edg/114.0.1823.51" version="21.2.9" etag="BSRxMHy1SVFbWr2gRtpz" type="github">
  <diagram name="第 1 页" id="h-4cK0n5iA6cf9KomQR7">
    <mxGraphModel>
      <root>
        <mxCell id="0" />
        <mxCell id="1" parent="0" />
      </root>
    </mxGraphModel>
  </diagram>
</mxfile>
